<mxfile host="Electron" modified="2023-10-25T17:50:16.868Z" agent="Mozilla/5.0 (Windows NT 10.0; Win64; x64) AppleWebKit/537.36 (KHTML, like Gecko) draw.io/22.0.2 Chrome/114.0.5735.289 Electron/25.8.4 Safari/537.36" etag="QGdXgTKLNhTDWUx3B0m8" version="22.0.2" type="device">
  <diagram name="Page-1" id="ltFOb-Syh6q27V1tW40L">
    <mxGraphModel dx="2284" dy="1937" grid="1" gridSize="10" guides="1" tooltips="1" connect="1" arrows="1" fold="1" page="1" pageScale="1" pageWidth="850" pageHeight="1100" math="0" shadow="0">
      <root>
        <mxCell id="0" />
        <mxCell id="1" parent="0" />
        <mxCell id="k3QtikyJZK7nQUIoRB2Y-7" value="" style="rounded=1;whiteSpace=wrap;html=1;strokeColor=#002A86;strokeWidth=1;arcSize=5;fillColor=#FFFFFF;perimeterSpacing=0;align=center;horizontal=1;verticalAlign=top;shadow=0;" parent="1" vertex="1">
          <mxGeometry x="-531" y="-677" width="165" height="80" as="geometry" />
        </mxCell>
        <mxCell id="wHrxclecU_oj1YYdlzbx-4" value="" style="rounded=1;whiteSpace=wrap;html=1;strokeColor=#0070F2;fillColor=#EBF8FF;arcSize=32;absoluteArcSize=1;imageWidth=64;imageHeight=64;" parent="1" vertex="1">
          <mxGeometry x="-260" y="-843" width="590" height="713" as="geometry" />
        </mxCell>
        <mxCell id="wHrxclecU_oj1YYdlzbx-5" value="" style="rounded=1;whiteSpace=wrap;html=1;strokeColor=#0070F2;fillColor=#FFFFFF;arcSize=24;absoluteArcSize=1;imageWidth=64;imageHeight=64;align=left;" parent="1" vertex="1">
          <mxGeometry x="-238.0394" y="-798" width="550" height="501" as="geometry" />
        </mxCell>
        <mxCell id="wHrxclecU_oj1YYdlzbx-6" value="&lt;font style=&quot;font-size: 16px;&quot;&gt;SAP&lt;font style=&quot;font-size: 16px;&quot;&gt; &lt;/font&gt;Business Technology Platform&lt;/font&gt;" style="text;html=1;strokeColor=none;fillColor=none;align=left;verticalAlign=middle;whiteSpace=wrap;rounded=0;fontStyle=1;fontSize=16;" parent="1" vertex="1">
          <mxGeometry x="-209" y="-839" width="289" height="30" as="geometry" />
        </mxCell>
        <mxCell id="wHrxclecU_oj1YYdlzbx-8" value="&lt;font style=&quot;font-size: 14px;&quot;&gt;Subaccount: Cloud Foundry Runtime&lt;/font&gt;" style="text;html=1;strokeColor=none;fillColor=none;align=left;verticalAlign=middle;whiteSpace=wrap;rounded=0;fontStyle=1;fontSize=14;fontColor=#000000;" parent="1" vertex="1">
          <mxGeometry x="-236" y="-796" width="264" height="30" as="geometry" />
        </mxCell>
        <mxCell id="wHrxclecU_oj1YYdlzbx-45" value="" style="shape=image;verticalLabelPosition=bottom;labelBackgroundColor=default;verticalAlign=top;aspect=fixed;imageAspect=0;image=data:image/svg+xml,PHN2ZyB4bWxuczp4bGluaz0iaHR0cDovL3d3dy53My5vcmcvMTk5OS94bGluayIgeG1sbnM9Imh0dHA6Ly93d3cudzMub3JnLzIwMDAvc3ZnIiB2aWV3Qm94PSIwIDAgNDEyLjM4IDIwNCIgZGF0YS1uYW1lPSJMYXllciAxIiBpZD0iTGF5ZXJfMSI+PGRlZnM+PHN0eWxlPi5jbHMtMSwuY2xzLTJ7ZmlsbC1ydWxlOmV2ZW5vZGQ7fS5jbHMtMXtmaWxsOnVybCgjbGluZWFyLWdyYWRpZW50KTt9LmNscy0ye2ZpbGw6I2ZmZjt9PC9zdHlsZT48bGluZWFyR3JhZGllbnQgZ3JhZGllbnRVbml0cz0idXNlclNwYWNlT25Vc2UiIHkyPSIyMDQiIHgyPSIyMDYuMTkiIHgxPSIyMDYuMTkiIGlkPSJsaW5lYXItZ3JhZGllbnQiPjxzdG9wIHN0b3AtY29sb3I9IiMwMGI4ZjEiIG9mZnNldD0iMCIvPjxzdG9wIHN0b3AtY29sb3I9IiMwMWI2ZjAiIG9mZnNldD0iMC4wMiIvPjxzdG9wIHN0b3AtY29sb3I9IiMwZDkwZDkiIG9mZnNldD0iMC4zMSIvPjxzdG9wIHN0b3AtY29sb3I9IiMxNzc1YzgiIG9mZnNldD0iMC41OCIvPjxzdG9wIHN0b3AtY29sb3I9IiMxYzY1YmYiIG9mZnNldD0iMC44MiIvPjxzdG9wIHN0b3AtY29sb3I9IiMxZTVmYmIiIG9mZnNldD0iMSIvPjwvbGluZWFyR3JhZGllbnQ+PC9kZWZzPjx0aXRsZT5TQVBfZ3JhZF9SX3Njcm5fWmVpY2hlbmZsw6RjaGUgMTwvdGl0bGU+PHBvbHlsaW5lIHBvaW50cz0iMCAyMDQgMjA4LjQxIDIwNCA0MTIuMzggMCAwIDAgMCAyMDQiIGNsYXNzPSJjbHMtMSIvPjxwYXRoIGQ9Ik0yNDQuNzMsMzguMzZsLTQwLjYsMHY5Ni41MkwxNjguNjcsMzguMzNIMTMzLjUxbC0zMC4yNyw4MC43MkMxMDAsOTguNyw3OSw5MS42Nyw2Mi40LDg2LjQsNTEuNDYsODIuODksMzkuODUsNzcuNzIsNDAsNzJjLjA5LTQuNjgsNi4yMy05LDE4LjM4LTguMzgsOC4xNy40MywxNS4zNywxLjA5LDI5LjcxLDhsMTQuMS0yNC41NUM4OS4wNiw0MC40Miw3MSwzNi4yMSw1Ni4xNywzNi4xOWgtLjA5Yy0xNy4yOCwwLTMxLjY4LDUuNi00MC42LDE0LjgzQTM0LjIzLDM0LjIzLDAsMCwwLDUuNzcsNzQuN0M1LjU0LDg3LjE1LDEwLjExLDk2LDE5LjcxLDEwM2M4LjEsNS45NCwxOC40Niw5Ljc5LDI3LjYsMTIuNjIsMTEuMjcsMy40OSwyMC40Nyw2LjUzLDIwLjM2LDEzQTkuNTcsOS41NywwLDAsMSw2NSwxMzVjLTIuODEsMi45LTcuMTMsNC0xMy4wOSw0LjEtMTEuNDkuMjQtMjAtMS41Ni0zMy42MS05LjU5TDUuNzcsMTU0LjQyYTkzLjc3LDkzLjc3LDAsMCwwLDQ2LDEyLjIybDIuMTEsMGMxNC4yNC0uMjUsMjUuNzQtNC4zMSwzNC45Mi0xMS43MS41My0uNDEsMS0uODQsMS40OS0xLjI4TDg2LjE3LDE2NC41SDEyM2w2LjE5LTE4LjgyYTY3LjQ2LDY3LjQ2LDAsMCwwLDIxLjY4LDMuNDMsNjguMzMsNjguMzMsMCwwLDAsMjEuMTYtMy4yNWw2LDE4LjY0aDYwLjE0di0zOWgxMy4xMWMzMS43MSwwLDUwLjQ2LTE2LjE1LDUwLjQ2LTQzLjJDMzAxLjc0LDUyLjE5LDI4My41MiwzOC4zNiwyNDQuNzMsMzguMzZaTTE1MC45MSwxMjFhMzYuOTMsMzYuOTMsMCwwLDEtMTMtMi4yOGwxMi44Ny00MC41OUgxNTFsMTIuNjUsNDAuNzFBMzguNSwzOC41LDAsMCwxLDE1MC45MSwxMjFabTk2LjItMjMuMzNoLTguOTRWNjQuOTFoOC45NGMxMS45MywwLDIxLjQ0LDQsMjEuNDQsMTYuMTQsMCwxMi42LTkuNTEsMTYuNTctMjEuNDQsMTYuNTciIGNsYXNzPSJjbHMtMiIvPjwvc3ZnPg==;" parent="1" vertex="1">
          <mxGeometry x="-250" y="-833" width="40.39" height="20" as="geometry" />
        </mxCell>
        <mxCell id="wHrxclecU_oj1YYdlzbx-47" value="" style="rounded=1;whiteSpace=wrap;html=1;strokeColor=#0070F2;fillColor=#EBF8FF;arcSize=24;absoluteArcSize=1;imageWidth=64;imageHeight=64;" parent="1" vertex="1">
          <mxGeometry x="-100" y="-741" width="270" height="195" as="geometry" />
        </mxCell>
        <mxCell id="wHrxclecU_oj1YYdlzbx-48" value="&lt;font style=&quot;font-size: 13px;&quot; color=&quot;#354a5f&quot;&gt;Master Data Orchestration&lt;/font&gt;" style="rounded=1;whiteSpace=wrap;html=1;strokeColor=#0070F2;fillColor=#FFFFFF;arcSize=16;absoluteArcSize=1;imageWidth=64;imageHeight=64;" parent="1" vertex="1">
          <mxGeometry x="-55" y="-671" width="180" height="40" as="geometry" />
        </mxCell>
        <mxCell id="wHrxclecU_oj1YYdlzbx-34" value="&lt;div style=&quot;&quot;&gt;&lt;span style=&quot;background-color: initial;&quot;&gt;&lt;font size=&quot;1&quot; style=&quot;&quot;&gt;&lt;b style=&quot;font-size: 12px;&quot;&gt;Master Data Integration&lt;/b&gt;&lt;/font&gt;&lt;/span&gt;&lt;/div&gt;" style="text;whiteSpace=wrap;html=1;align=center;fontColor=#354a5f;verticalAlign=middle;" parent="1" vertex="1">
          <mxGeometry x="-57" y="-717.5" width="181" height="25" as="geometry" />
        </mxCell>
        <mxCell id="wHrxclecU_oj1YYdlzbx-52" value="" style="rounded=1;whiteSpace=wrap;html=1;strokeColor=#0070F2;fillColor=#FFFFFF;arcSize=24;absoluteArcSize=1;imageWidth=64;imageHeight=64;align=left;" parent="1" vertex="1">
          <mxGeometry x="-240" y="-262" width="550" height="110" as="geometry" />
        </mxCell>
        <mxCell id="wHrxclecU_oj1YYdlzbx-53" value="&lt;div style=&quot;&quot;&gt;&lt;span style=&quot;background-color: initial;&quot;&gt;&lt;font size=&quot;1&quot; style=&quot;&quot;&gt;&lt;b style=&quot;font-size: 12px;&quot;&gt;Business Accelerator Hub&lt;/b&gt;&lt;/font&gt;&lt;/span&gt;&lt;/div&gt;" style="text;whiteSpace=wrap;html=1;align=center;fontColor=#354a5f;" parent="1" vertex="1">
          <mxGeometry x="-60" y="-186" width="190" height="40" as="geometry" />
        </mxCell>
        <mxCell id="wHrxclecU_oj1YYdlzbx-89" value="" style="group" parent="1" vertex="1" connectable="0">
          <mxGeometry x="165" y="-242" width="80" height="70" as="geometry" />
        </mxCell>
        <mxCell id="wHrxclecU_oj1YYdlzbx-56" value="&lt;div style=&quot;&quot;&gt;&lt;span style=&quot;background-color: initial;&quot;&gt;&lt;font size=&quot;1&quot; style=&quot;&quot;&gt;&lt;b style=&quot;&quot;&gt;Adapters&lt;/b&gt;&lt;/font&gt;&lt;/span&gt;&lt;/div&gt;" style="text;whiteSpace=wrap;html=1;align=center;container=0;fontColor=#5b738b;" parent="wHrxclecU_oj1YYdlzbx-89" vertex="1">
          <mxGeometry y="30" width="80" height="40" as="geometry" />
        </mxCell>
        <mxCell id="wHrxclecU_oj1YYdlzbx-64" value="" style="shape=image;verticalLabelPosition=bottom;verticalAlign=top;imageAspect=0;aspect=fixed;image=data:image/svg+xml,PHN2ZyB4bWxucz0iaHR0cDovL3d3dy53My5vcmcvMjAwMC9zdmciIHZpZXdCb3g9IjAgMCAxNiAxNiIgaGVpZ2h0PSIxNiIgd2lkdGg9IjE2IiBpZD0iTGF5ZXJfMiI+PGcgaWQ9Ikljb25zXzE2cHgiPjxnIGlkPSJkaXNjb25uZWN0ZWQiPjxyZWN0IG9wYWNpdHk9IjAiIGZpbGw9IiNmZmYiIGhlaWdodD0iMTYiIHdpZHRoPSIxNiIgeT0iMCIvPjxwYXRoIHN0cm9rZS13aWR0aD0iMS42IiBzdHJva2UtbGluZWpvaW49InJvdW5kIiBzdHJva2UtbGluZWNhcD0icm91bmQiIHN0cm9rZT0iIzAwMCIgZmlsbD0ibm9uZSIgZD0ibTQuMzgsOC4ybC0uOTktLjk5Yy0uNzgtLjc4LS43OC0yLjA1LDAtMi44M2wuOTktLjk5Yy43OC0uNzgsMi4wNS0uNzgsMi44MywwbC45OS45OS0zLjgyLDMuODJaTS44LjhsMy4wOCwzLjA4bTUuMTIsMy40MmwtMS43LTEuN20wLDMuNGwtMS43LTEuNyIgaWQ9InBsdWciLz48cGF0aCBzdHJva2Utd2lkdGg9IjEuNiIgc3Ryb2tlLWxpbmVqb2luPSJyb3VuZCIgc3Ryb2tlLWxpbmVjYXA9InJvdW5kIiBzdHJva2U9IiMwMDAiIGZpbGw9Im5vbmUiIGQ9Im0xMS42Miw3LjhsLjk5Ljk5Yy43OC43OC43OCwyLjA1LDAsMi44M2wtLjk5Ljk5Yy0uNzguNzgtMi4wNS43OC0yLjgzLDBsLS45OS0uOTksMy44Mi0zLjgyWm0zLjU4LDcuNGwtMy4wOC0zLjA4IiBpZD0icGx1Zy0yIi8+PC9nPjwvZz48L3N2Zz4=;container=0;" parent="wHrxclecU_oj1YYdlzbx-89" vertex="1">
          <mxGeometry x="25" y="1" width="30" height="30" as="geometry" />
        </mxCell>
        <mxCell id="wHrxclecU_oj1YYdlzbx-87" value="" style="group" parent="1" vertex="1" connectable="0">
          <mxGeometry x="-161.61" y="-242" width="51.61" height="70" as="geometry" />
        </mxCell>
        <mxCell id="wHrxclecU_oj1YYdlzbx-54" value="&lt;div style=&quot;&quot;&gt;&lt;span style=&quot;background-color: initial;&quot;&gt;&lt;font size=&quot;1&quot; style=&quot;&quot;&gt;&lt;b style=&quot;&quot;&gt;APIs&lt;/b&gt;&lt;/font&gt;&lt;/span&gt;&lt;/div&gt;" style="text;whiteSpace=wrap;html=1;align=center;container=0;fontColor=#5b738b;" parent="wHrxclecU_oj1YYdlzbx-87" vertex="1">
          <mxGeometry y="30" width="51.61" height="40" as="geometry" />
        </mxCell>
        <mxCell id="wHrxclecU_oj1YYdlzbx-62" value="" style="shape=image;verticalLabelPosition=bottom;verticalAlign=top;imageAspect=0;aspect=fixed;image=data:image/svg+xml,PHN2ZyB4bWxucz0iaHR0cDovL3d3dy53My5vcmcvMjAwMC9zdmciIHZpZXdCb3g9IjAgMCAxNiAxNiIgaGVpZ2h0PSIxNiIgd2lkdGg9IjE2IiBpZD0iTGF5ZXJfMiI+PGcgaWQ9Ikljb25zXzE2cHgiPjxnIGlkPSJzaGFyZS0yIj48cmVjdCBvcGFjaXR5PSIwIiBmaWxsPSIjZmZmIiBoZWlnaHQ9IjE2IiB3aWR0aD0iMTYiIHk9IjAiIHg9IjAiLz48cGF0aCBzdHJva2Utd2lkdGg9IjEuNiIgc3Ryb2tlLWxpbmVqb2luPSJyb3VuZCIgc3Ryb2tlLWxpbmVjYXA9InJvdW5kIiBzdHJva2U9IiMwMDAiIGZpbGw9Im5vbmUiIGQ9Im01LjEsNi42NGw1LjctMi44Nm0tNS44OSw1LjQ2bDUuNzMsMi44N20yLjM2LDMuMDhjMS4yNSwwLDIuMi0uOTUsMi4yLTIuMnMtLjk1LTIuMi0yLjItMi4yLTIuMi45NS0yLjIsMi4yLjk1LDIuMiwyLjIsMi4yWm0wLTEwYzEuMjUsMCwyLjItLjk1LDIuMi0yLjJzLS45NS0yLjItMi4yLTIuMi0yLjIuOTUtMi4yLDIuMi45NSwyLjIsMi4yLDIuMlpNMywxMC4yYzEuMjUsMCwyLjItLjk1LDIuMi0yLjJzLS45NS0yLjItMi4yLTIuMi0yLjIuOTUtMi4yLDIuMi45NSwyLjIsMi4yLDIuMloiIGlkPSJfQ29tcG91bmRfUGF0aF8iLz48L2c+PC9nPjwvc3ZnPg==;container=0;" parent="wHrxclecU_oj1YYdlzbx-87" vertex="1">
          <mxGeometry x="10.805000000000007" y="1" width="30" height="30" as="geometry" />
        </mxCell>
        <mxCell id="wHrxclecU_oj1YYdlzbx-90" value="" style="group" parent="1" vertex="1" connectable="0">
          <mxGeometry x="-50" y="-242" width="170" height="70" as="geometry" />
        </mxCell>
        <mxCell id="wHrxclecU_oj1YYdlzbx-55" value="&lt;div style=&quot;&quot;&gt;&lt;span style=&quot;background-color: initial;&quot;&gt;&lt;font size=&quot;1&quot; style=&quot;&quot;&gt;&lt;b style=&quot;&quot;&gt;Integration Content&lt;/b&gt;&lt;/font&gt;&lt;/span&gt;&lt;/div&gt;" style="text;whiteSpace=wrap;html=1;align=center;container=0;fontColor=#5b738b;" parent="wHrxclecU_oj1YYdlzbx-90" vertex="1">
          <mxGeometry y="30" width="170" height="40" as="geometry" />
        </mxCell>
        <mxCell id="4CLjx_f1UrBtVsuY_A0e-6" value="" style="shape=image;verticalLabelPosition=bottom;verticalAlign=top;imageAspect=0;aspect=fixed;image=data:image/svg+xml,PHN2ZyB4bWxucz0iaHR0cDovL3d3dy53My5vcmcvMjAwMC9zdmciIHZpZXdCb3g9IjAgMCAxNiAxNiIgZmlsbD0ibm9uZSI+PHBhdGggZD0iTTE0Ljg3NSA0LjA5NGMuMjMuMTQ2LjM0NC4zMzMuMzQ0LjU2MiAwIC4wNjMtLjAxLjExNS0uMDMxLjE1N3Y2LjM3NWEuNzk2Ljc5NiAwIDAgMS0uNDA3LjcxOGwtNi4zNDQgMy45NjlBLjkzLjkzIDAgMCAxIDcuOTcgMTZjLS4xODggMC0uMzIzLS4wNDItLjQwNy0uMTI1bC02LjM3NS0zLjk2OWExIDEgMCAwIDEtLjMxMi0uMzQ0Ljk4NC45ODQgMCAwIDEtLjA5NC0uMzc0VjQuODExYzAtLjMxMi4xMzYtLjU1Mi40MDYtLjcxOGwzLjE4OC0yQzQuNTQyIDIuMDMgNC42OTggMiA0Ljg0NCAyYy4xNDYgMCAuMjgxLjAzMS40MDYuMDk0bDYuMzc1IDRjLjEwNC4wNDEuMTg4LjEzNS4yNS4yODEuMDgzLjEyNS4xMjUuMjQuMTI1LjM0NFY5LjVjMCAuNTQyLS4yNi44MTMtLjc4MS44MTNhLjg3Mi44NzIgMCAwIDEtLjU5NC0uMjJjLS4xNDYtLjE0NS0uMjE5LS4zNDMtLjIxOS0uNTkzVjcuMTg3bC01LjU2Mi0zLjVMMi40NjkgNS4yMnY1LjVsNS41NjIgMy41IDUuNTYzLTMuNXYtNS41bC01Ljk2OS0zLjc1Yy0uMjUtLjE2Ny0uMzc1LS4zODYtLjM3NS0uNjU3IDAtLjEwNC4wNDItLjI2LjEyNS0uNDY4QS44ODguODg4IDAgMCAxIDguMDk0IDAgLjYzLjYzIDAgMCAxIDguNS4xMjVsNi4zNzUgMy45Njl6bS03LjkzOCA2LjEyNWMuMjUuMTQ2LjM3NS4zNjQuMzc1LjY1NmEuOTMuOTMgMCAwIDEtLjEyNS40NjljLS4xNjYuMjI5LS40MDYuMzQ0LS43MTguMzQ0YS44OTcuODk3IDAgMCAxLS40MDctLjA5NGwtMS41OTMtLjk2OWMtLjI1LS4xNjctLjM3NS0uMzc1LS4zNzUtLjYyNSAwLS4xNjcuMDUyLS4zMzMuMTU2LS41LjE4OC0uMjMuNDE3LS4zNDQuNjg4LS4zNDRhLjYzLjYzIDAgMCAxIC40MDYuMTI1bDEuNTkzLjkzOHoiIGZpbGw9IiMxRDJEM0UiLz48L3N2Zz4=" vertex="1" parent="wHrxclecU_oj1YYdlzbx-90">
          <mxGeometry x="72" y="-1.5600000000000023" width="29.9212" height="29.92" as="geometry" />
        </mxCell>
        <mxCell id="wHrxclecU_oj1YYdlzbx-18" value="" style="endArrow=block;html=1;strokeColor=#CC00DC;bendable=1;rounded=1;endFill=1;endSize=3;strokeWidth=2;exitX=1;exitY=0.5;exitDx=0;exitDy=0;entryX=0;entryY=0.5;entryDx=0;entryDy=0;" parent="1" source="wHrxclecU_oj1YYdlzbx-76" target="AC1n5_2y5fodJ-FfjMJq-14" edge="1">
          <mxGeometry width="50" height="50" relative="1" as="geometry">
            <mxPoint x="-428" y="-380" as="sourcePoint" />
            <mxPoint x="-290" y="-378.6470588235295" as="targetPoint" />
            <Array as="points" />
          </mxGeometry>
        </mxCell>
        <mxCell id="wHrxclecU_oj1YYdlzbx-35" value="&lt;b&gt;&lt;font style=&quot;font-size: 10px;&quot; color=&quot;#5b738b&quot;&gt;Cloud&lt;/font&gt;&lt;/b&gt;" style="rounded=1;whiteSpace=wrap;html=1;strokeColor=#002A86;strokeWidth=1;arcSize=5;fillColor=#FFFFFF;perimeterSpacing=0;align=center;horizontal=1;verticalAlign=top;shadow=0;" parent="1" vertex="1">
          <mxGeometry x="-538" y="-684" width="165" height="80" as="geometry" />
        </mxCell>
        <mxCell id="wHrxclecU_oj1YYdlzbx-36" value="&lt;span style=&quot;font-family: Helvetica; font-style: normal; font-variant-ligatures: normal; font-variant-caps: normal; letter-spacing: normal; orphans: 2; text-indent: 0px; text-transform: none; widows: 2; word-spacing: 0px; -webkit-text-stroke-width: 0px; text-decoration-thickness: initial; text-decoration-style: initial; text-decoration-color: initial; float: none; display: inline !important;&quot;&gt;&lt;font style=&quot;font-size: 12px;&quot; color=&quot;#354a5f&quot;&gt;&lt;b style=&quot;&quot;&gt;SAP Solution&lt;/b&gt;&lt;br&gt;&lt;font style=&quot;font-size: 12px;&quot;&gt;(incl. SAP Master&lt;br&gt;Data Governance)&lt;/font&gt;&lt;br&gt;&lt;/font&gt;&lt;/span&gt;" style="text;whiteSpace=wrap;html=1;align=center;" parent="1" vertex="1">
          <mxGeometry x="-533" y="-661" width="121" height="40" as="geometry" />
        </mxCell>
        <mxCell id="wHrxclecU_oj1YYdlzbx-76" value="&lt;font color=&quot;#ffffff&quot; style=&quot;font-size: 10px;&quot;&gt;REST / SOAP&lt;/font&gt;" style="rounded=1;whiteSpace=wrap;html=1;arcSize=30;absoluteArcSize=1;strokeColor=#354a5f;fillColor=#354a5f;imageVerticalAlign=top;imageAlign=center;imageWidth=24;imageHeight=16;fontSize=10;" parent="1" vertex="1">
          <mxGeometry x="-410" y="-655" width="72" height="11.81" as="geometry" />
        </mxCell>
        <mxCell id="wHrxclecU_oj1YYdlzbx-106" value="&lt;b&gt;&lt;font face=&quot;arial black&quot; style=&quot;font-size: 13px;&quot; color=&quot;#ffffff&quot;&gt;1&lt;/font&gt;&lt;/b&gt;" style="ellipse;whiteSpace=wrap;html=1;aspect=fixed;rotation=0;gradientColor=#0057D2;strokeColor=none;gradientDirection=east;fillColor=#2395FF;" parent="1" vertex="1">
          <mxGeometry x="-322" y="-615.75" width="24" height="24" as="geometry" />
        </mxCell>
        <mxCell id="wHrxclecU_oj1YYdlzbx-108" value="&lt;b&gt;&lt;font face=&quot;arial black&quot; style=&quot;font-size: 13px;&quot; color=&quot;#ffffff&quot;&gt;3&lt;/font&gt;&lt;/b&gt;" style="ellipse;whiteSpace=wrap;html=1;aspect=fixed;rotation=0;gradientColor=#0057D2;strokeColor=none;gradientDirection=east;fillColor=#2395FF;" parent="1" vertex="1">
          <mxGeometry x="6" y="-507" width="24" height="24" as="geometry" />
        </mxCell>
        <mxCell id="wHrxclecU_oj1YYdlzbx-109" value="&lt;b style=&quot;font-size: 14px;&quot;&gt;Option A&lt;/b&gt;: Synchronize master data&lt;br&gt;using SAP Master Data Integration" style="text;html=1;align=center;verticalAlign=middle;resizable=0;points=[];autosize=1;strokeColor=none;fillColor=none;fontColor=#CC00DC;fontSize=14;" parent="1" vertex="1">
          <mxGeometry x="-530" y="-764" width="240" height="50" as="geometry" />
        </mxCell>
        <mxCell id="wHrxclecU_oj1YYdlzbx-110" value="&lt;font color=&quot;#354a5f&quot;&gt;&lt;b style=&quot;font-size: 14px;&quot;&gt;Option B&lt;/b&gt;: Replcate master data&lt;br&gt;using SAP Integration Suite&lt;/font&gt;" style="text;html=1;align=center;verticalAlign=middle;resizable=0;points=[];autosize=1;strokeColor=none;fillColor=none;fontSize=14;" parent="1" vertex="1">
          <mxGeometry x="-530" y="-544" width="220" height="50" as="geometry" />
        </mxCell>
        <mxCell id="wHrxclecU_oj1YYdlzbx-80" value="&lt;font color=&quot;#ffffff&quot; style=&quot;font-size: 10px;&quot;&gt;REST / OData / SOAP&lt;/font&gt;" style="rounded=1;whiteSpace=wrap;html=1;arcSize=30;absoluteArcSize=1;strokeColor=#354a5f;fillColor=#354a5f;imageVerticalAlign=top;imageAlign=center;imageWidth=24;imageHeight=16;fontSize=10;" parent="1" vertex="1">
          <mxGeometry x="-410" y="-634" width="107.87379999999999" height="11.81" as="geometry" />
        </mxCell>
        <mxCell id="AC1n5_2y5fodJ-FfjMJq-1" value="" style="shape=image;verticalLabelPosition=bottom;verticalAlign=top;imageAspect=0;aspect=fixed;image=data:image/svg+xml,PHN2ZyB4bWxucz0iaHR0cDovL3d3dy53My5vcmcvMjAwMC9zdmciIGZpbGw9Im5vbmUiIHZpZXdCb3g9IjAgMCA0OSA0OSIgaGVpZ2h0PSI0OSIgd2lkdGg9IjQ5Ij4mI3hhOzxnIGNsaXAtcGF0aD0idXJsKCNjbGlwMF8yNjIyXzM2OTYpIj4mI3hhOzxjaXJjbGUgc3Ryb2tlLXdpZHRoPSIwLjg1NzE0MyIgc3Ryb2tlPSIjRDVEQUREIiBmaWxsPSJ1cmwoI3BhaW50MF9saW5lYXJfMjYyMl8zNjk2KSIgcj0iMjMuNTcxNCIgY3k9IjI0LjAzNDkiIGN4PSIyNC41Ii8+JiN4YTs8ZyBjbGlwLXBhdGg9InVybCgjY2xpcDFfMjYyMl8zNjk2KSI+JiN4YTs8cGF0aCBmaWxsPSJ1cmwoI3BhaW50MV9yYWRpYWxfMjYyMl8zNjk2KSIgZD0iTTMwLjY2OTIgMTQuODA1OUMzMC4xODkyIDE0Ljk4MzggMjkuNzk4MyAxNS4zNDg1IDI5LjU4MjMgMTUuODE5OUwyNS4zNDE4IDI0Ljk4MDJDMjUuMjM0OSAyNS4yMTM1IDI1LjE3NDIgMjUuNDY2MSAyNS4xNjMyIDI1LjcyMzNDMjUuMTUyMSAyNS45ODA2IDI1LjE5MSAyNi4yMzc1IDI1LjI3NzUgMjYuNDc5NUMyNS4zNjQgMjYuNzIxNSAyNS40OTY0IDI2Ljk0MzggMjUuNjY3MyAyNy4xMzM2QzI1LjgzODEgMjcuMzIzNSAyNi4wNDQxIDI3LjQ3NzIgMjYuMjczMyAyNy41ODZDMjYuNTAyNSAyNy42OTQ5IDI2Ljc1MDUgMjcuNzU2NyAyNy4wMDMyIDI3Ljc2OEMyNy4yNTU5IDI3Ljc3OTIgMjcuNTA4MyAyNy43Mzk3IDI3Ljc0NiAyNy42NTE2QzI3Ljk4MzcgMjcuNTYzNSAyOC4yMDIgMjcuNDI4NyAyOC4zODg1IDI3LjI1NDdDMjguNTc0OSAyNy4wODA3IDI4LjcyNTkgMjYuODcxIDI4LjgzMjggMjYuNjM3NkwzMy4wNzM0IDE3LjQ3NzFDMzMuMjg5MiAxNy4wMDU3IDMzLjMxMjMgMTYuNDY2NCAzMy4xMzc2IDE1Ljk3NzdDMzIuOTYyOSAxNS40ODkxIDMyLjYwNDggMTUuMDkxIDMyLjE0MTkgMTQuODcxMkMzMS42Nzg5IDE0LjY1MTUgMzEuMTQ5MiAxNC42MjggMzAuNjY5MiAxNC44MDU5Wk0yMS4yMDU3IDMwLjgwMDJMMjQuMzczMSAyMy45OTk0QzI0LjU4ODkgMjMuNTI4MSAyNC42MTIxIDIyLjk4ODkgMjQuNDM3NSAyMi41MDAyQzI0LjI2MjkgMjIuMDExNSAyMy45MDQ4IDIxLjYxMzUgMjMuNDQyIDIxLjM5MzVDMjIuOTc5MSAyMS4xNzM3IDIyLjQ0OTQgMjEuMTUwMiAyMS45Njk0IDIxLjMyODFDMjEuNDg5NCAyMS41MDU5IDIxLjA5ODQgMjEuODcwNiAyMC44ODI1IDIyLjM0MkwxNy43MTU0IDI5LjE0MjhDMTcuNjA4NSAyOS4zNzYyIDE3LjU0NzggMjkuNjI4NyAxNy41MzY4IDI5Ljg4NTlDMTcuNTI1NyAzMC4xNDMyIDE3LjU2NDYgMzAuNDAwMSAxNy42NTExIDMwLjY0MjFDMTcuNzM3NiAzMC44ODQgMTcuODcgMzEuMTA2MyAxOC4wNDA5IDMxLjI5NjFDMTguMjExNyAzMS40ODU5IDE4LjQxNzYgMzEuNjM5NiAxOC42NDY4IDMxLjc0ODRDMTkuMTA5NyAzMS45NjgxIDE5LjYzOTMgMzEuOTkxNyAyMC4xMTkxIDMxLjgxMzlDMjAuNTk5IDMxLjYzNjEgMjAuOTg5OCAzMS4yNzE0IDIxLjIwNTcgMzAuODAwMlpNMTUuNTg4NSAyOS45NzQyQzE1LjU4ODUgMzEuMDUzNSAxNC43MjkyIDMxLjkyODQgMTMuNjY5MyAzMS45Mjg0QzEyLjYwOTMgMzEuOTI4NCAxMS43NSAzMS4wNTM1IDExLjc1IDI5Ljk3NDJDMTEuNzUgMjguODk1IDEyLjYwOTMgMjguMDIwMSAxMy42NjkzIDI4LjAyMDFDMTQuNzI5MiAyOC4wMjAxIDE1LjU4ODUgMjguODk1IDE1LjU4ODUgMjkuOTc0MlpNMjUuMjQyMiAzMS45Mjg0QzI2LjMwMjIgMzEuOTI4NCAyNy4xNjE0IDMxLjA1MzUgMjcuMTYxNCAyOS45NzQyQzI3LjE2MTQgMjguODk1IDI2LjMwMjIgMjguMDIwMSAyNS4yNDIyIDI4LjAyMDFDMjQuMTgyMiAyOC4wMjAxIDIzLjMyMjkgMjguODk1IDIzLjMyMjkgMjkuOTc0MkMyMy4zMjI5IDMxLjA1MzUgMjQuMTgyMiAzMS45Mjg0IDI1LjI0MjIgMzEuOTI4NFpNMzYuODMwOCAzMS45Mjg0QzM3Ljg5MDcgMzEuOTI4NCAzOC43NSAzMS4wNTM1IDM4Ljc1IDI5Ljk3NDJDMzguNzUgMjguODk1IDM3Ljg5MDcgMjguMDIwMSAzNi44MzA4IDI4LjAyMDFDMzUuNzcwOCAyOC4wMjAxIDM0LjkxMTUgMjguODk1IDM0LjkxMTUgMjkuOTc0MkMzNC45MTE1IDMxLjA1MzUgMzUuNzcwOCAzMS45Mjg0IDM2LjgzMDggMzEuOTI4NFpNMzIuNzkyOSAzMC43OTk0TDM1LjczNTQgMjQuMzQzOEMzNS45NTEyIDIzLjg3MjcgMzUuOTc0NCAyMy4zMzM3IDM1LjggMjIuODQ1M0MzNS42MjU2IDIyLjM1NjggMzUuMjY3OCAyMS45NTg5IDM0LjgwNTQgMjEuNzM4OUMzNC41NzYyIDIxLjYzIDM0LjMyODIgMjEuNTY4MyAzNC4wNzU1IDIxLjU1N0MzMy44MjI5IDIxLjU0NTggMzMuNTcwNSAyMS41ODUzIDMzLjMzMjkgMjEuNjczNEMzMy4wOTUzIDIxLjc2MTUgMzIuODc3IDIxLjg5NjQgMzIuNjkwNSAyMi4wNzAzQzMyLjUwNDEgMjIuMjQ0MyAzMi4zNTMxIDIyLjQ1MzkgMzIuMjQ2MyAyMi42ODczTDI5LjMwMzcgMjkuMTQyN0MyOS4wODggMjkuNjEzOCAyOS4wNjQ4IDMwLjE1MjggMjkuMjM5MiAzMC42NDEyQzI5LjQxMzYgMzEuMTI5NyAyOS43NzEzIDMxLjUyNzYgMzAuMjMzOCAzMS43NDc2QzMwLjY5NjcgMzEuOTY3NCAzMS4yMjYzIDMxLjk5MDkgMzEuNzA2MiAzMS44MTMxQzMyLjE4NjEgMzEuNjM1MyAzMi41NzcgMzEuMjcwNyAzMi43OTI5IDMwLjc5OTRaIiBjbGlwLXJ1bGU9ImV2ZW5vZGQiIGZpbGwtcnVsZT0iZXZlbm9kZCIvPiYjeGE7PHBhdGggZmlsbD0idXJsKCNwYWludDJfcmFkaWFsXzI2MjJfMzY5NikiIGQ9Ik0xNi43MDM3IDE4LjM2NTRDMTYuNDE0NSAxOC4zMzQ5IDE2LjEzMzEgMTguMjM3OCAxNS44ODE4IDE4LjA3ODFDMTUuNDQ4NSAxNy44MDI2IDE1LjE0MDQgMTcuMzYzMiAxNS4wMjUzIDE2Ljg1NjVDMTQuOTY4NCAxNi42MDU2IDE0Ljk2MDYgMTYuMzQ1NyAxNS4wMDIzIDE2LjA5MTdDMTUuMDQ0IDE1LjgzNzcgMTUuMTM0NSAxNS41OTQ2IDE1LjI2ODUgMTUuMzc2MkMxNS40MDI1IDE1LjE1NzggMTUuNTc3NSAxNC45Njg1IDE1Ljc4MzQgMTQuODE4OUMxNS45ODkzIDE0LjY2OTQgMTYuMjIyMSAxNC41NjI2IDE2LjQ2ODUgMTQuNTA0N0wxOS42MTg1IDEzLjgyNjhDMjAuMTE2MiAxMy43MDk4IDIwLjYzOTIgMTMuNzk4OCAyMS4wNzI1IDE0LjA3NDNDMjEuNTA1NyAxNC4zNDk4IDIxLjgxMzggMTQuNzg5MiAyMS45MjkgMTUuMjk1OUMyMS45ODU5IDE1LjU0NjggMjEuOTkzNyAxNS44MDY3IDIxLjk1MiAxNi4wNjA2QzIxLjkxNzIgMTYuMjcyMyAyMS44NDg2IDE2LjQ3NjQgMjEuNzQ5MSAxNi42NjVMMTcuNTMwMSAyNS43NzYzQzE3LjMxNDMgMjYuMjQ3MyAxNi45MjM2IDI2LjYxMTkgMTYuNDQzOSAyNi43ODk3QzE1Ljk2NDIgMjYuOTY3NiAxNS40MzQ4IDI2Ljk0NDIgMTQuOTcyIDI2LjcyNDdDMTQuNTA5MSAyNi41MDQ5IDE0LjE1MDkgMjYuMTA2OSAxMy45NzYxIDI1LjYxODJDMTMuODAxNCAyNS4xMjk1IDEzLjgyNDUgMjQuNTkwMiAxNC4wNDAzIDI0LjExODhMMTYuNzAzNyAxOC4zNjU0WiIgY2xpcC1ydWxlPSJldmVub2RkIiBmaWxsLXJ1bGU9ImV2ZW5vZGQiLz4mI3hhOzwvZz4mI3hhOzwvZz4mI3hhOzxkZWZzPiYjeGE7PGxpbmVhckdyYWRpZW50IGdyYWRpZW50VW5pdHM9InVzZXJTcGFjZU9uVXNlIiB5Mj0iNDQuMjc5MiIgeDI9IjQxLjU2NDUiIHkxPSI2Ljg0Nzc1IiB4MT0iNC44NTI4NyIgaWQ9InBhaW50MF9saW5lYXJfMjYyMl8zNjk2Ij4mI3hhOzxzdG9wIHN0b3AtY29sb3I9IndoaXRlIi8+JiN4YTs8c3RvcCBzdG9wLWNvbG9yPSIjRUFFQ0VFIiBvZmZzZXQ9IjEiLz4mI3hhOzwvbGluZWFyR3JhZGllbnQ+JiN4YTs8cmFkaWFsR3JhZGllbnQgZ3JhZGllbnRUcmFuc2Zvcm09InRyYW5zbGF0ZSgxNS45MzcgMTcuMjE5Nikgcm90YXRlKDMyLjg1NSkgc2NhbGUoMjIuMjUyNyAzOC4zMjUxKSIgZ3JhZGllbnRVbml0cz0idXNlclNwYWNlT25Vc2UiIHI9IjEiIGN5PSIwIiBjeD0iMCIgaWQ9InBhaW50MV9yYWRpYWxfMjYyMl8zNjk2Ij4mI3hhOzxzdG9wIHN0b3AtY29sb3I9IiMwMTk1RkYiLz4mI3hhOzxzdG9wIHN0b3AtY29sb3I9IiMxMTQ3RTkiIG9mZnNldD0iMSIvPiYjeGE7PC9yYWRpYWxHcmFkaWVudD4mI3hhOzxyYWRpYWxHcmFkaWVudCBncmFkaWVudFRyYW5zZm9ybT0idHJhbnNsYXRlKDE1LjE1MTkgMTUuNzQ3NCkgcm90YXRlKDU4LjI3NDQpIHNjYWxlKDEwLjgxMTYgMTEuNzM3OCkiIGdyYWRpZW50VW5pdHM9InVzZXJTcGFjZU9uVXNlIiByPSIxIiBjeT0iMCIgY3g9IjAiIGlkPSJwYWludDJfcmFkaWFsXzI2MjJfMzY5NiI+JiN4YTs8c3RvcCBzdG9wLWNvbG9yPSIjMDBCQkZGIi8+JiN4YTs8c3RvcCBzdG9wLWNvbG9yPSIjMDA4QkZGIiBvZmZzZXQ9IjEiLz4mI3hhOzwvcmFkaWFsR3JhZGllbnQ+JiN4YTs8Y2xpcFBhdGggaWQ9ImNsaXAwXzI2MjJfMzY5NiI+JiN4YTs8cmVjdCB0cmFuc2Zvcm09InRyYW5zbGF0ZSgwLjUgMC4wMzQ5MTIxKSIgZmlsbD0id2hpdGUiIGhlaWdodD0iNDgiIHdpZHRoPSI0OCIvPiYjeGE7PC9jbGlwUGF0aD4mI3hhOzxjbGlwUGF0aCBpZD0iY2xpcDFfMjYyMl8zNjk2Ij4mI3hhOzxyZWN0IHRyYW5zZm9ybT0idHJhbnNsYXRlKDExLjc1IDkuNzg0OTEpIiBmaWxsPSJ3aGl0ZSIgaGVpZ2h0PSIyNyIgd2lkdGg9IjI3Ii8+JiN4YTs8L2NsaXBQYXRoPiYjeGE7PC9kZWZzPiYjeGE7PC9zdmc+" parent="1" vertex="1">
          <mxGeometry x="-88" y="-729.5" width="49" height="49" as="geometry" />
        </mxCell>
        <mxCell id="AC1n5_2y5fodJ-FfjMJq-9" value="&lt;font style=&quot;font-size: 13px;&quot; color=&quot;#354a5f&quot;&gt;Master Data Event Log&lt;/font&gt;" style="rounded=1;whiteSpace=wrap;html=1;strokeColor=#0070F2;fillColor=#FFFFFF;arcSize=16;absoluteArcSize=1;imageWidth=64;imageHeight=64;" parent="1" vertex="1">
          <mxGeometry x="-55" y="-613.75" width="180" height="40" as="geometry" />
        </mxCell>
        <mxCell id="AC1n5_2y5fodJ-FfjMJq-10" value="" style="rounded=1;whiteSpace=wrap;html=1;strokeColor=#0070F2;fillColor=#EBF8FF;arcSize=24;absoluteArcSize=1;imageWidth=64;imageHeight=64;" parent="1" vertex="1">
          <mxGeometry x="-100" y="-529" width="270" height="209" as="geometry" />
        </mxCell>
        <mxCell id="AC1n5_2y5fodJ-FfjMJq-11" value="&lt;div style=&quot;&quot;&gt;&lt;span style=&quot;background-color: initial;&quot;&gt;&lt;font size=&quot;1&quot; style=&quot;&quot;&gt;&lt;b style=&quot;font-size: 12px;&quot;&gt;Integration Suite&lt;/b&gt;&lt;/font&gt;&lt;/span&gt;&lt;/div&gt;" style="text;whiteSpace=wrap;html=1;align=center;fontColor=#354a5f;verticalAlign=middle;" parent="1" vertex="1">
          <mxGeometry x="-57" y="-507" width="141" height="23" as="geometry" />
        </mxCell>
        <mxCell id="AC1n5_2y5fodJ-FfjMJq-14" value="" style="shape=image;verticalLabelPosition=bottom;verticalAlign=top;imageAspect=0;aspect=fixed;image=data:image/svg+xml,PHN2ZyB4bWxucz0iaHR0cDovL3d3dy53My5vcmcvMjAwMC9zdmciIHZpZXdCb3g9IjAgMCAxNiAxNiIgZmlsbD0ibm9uZSI+PHBhdGggZD0iTTE0LjE1Ni4yNWEuNzYxLjc2MSAwIDAgMSAuMjE5LjU2M3YxNC4zNzRhLjgzMi44MzIgMCAwIDEtLjIxOS41NjMuNzEzLjcxMyAwIDAgMS0uNTYyLjI1SDIuNDA2YS43MTMuNzEzIDAgMCAxLS41NjItLjI1LjgzMi44MzIgMCAwIDEtLjIxOS0uNTYzVjUuNTk1YzAtLjIwOS4wNzMtLjM4Ni4yMTktLjUzMkw2LjYyNS4yNWEuODMyLjgzMiAwIDAgMSAuNTYzLS4yMTloNi40MDZjLjIyOSAwIC40MTYuMDczLjU2Mi4yMTl6bS0xLjM3NSAxLjM3NWgtNS4yNWwtLjM0My4zMTNWNGMwIC40MzgtLjE1Ny44MTMtLjQ3IDEuMTI1YTEuNTM0IDEuNTM0IDAgMCAxLTEuMTI0LjQ2OUgzLjUzbC0uMzEyLjM0M3Y4LjQ3aDkuNTYyVjEuNjI0ek00LjgxMiA4LjgxM2MwLS41NDIuMjYtLjgxMy43ODItLjgxM2g0LjgxMmMuNTIxIDAgLjc4MS4yNy43ODEuODEzIDAgLjUyLS4yNi43OC0uNzguNzhINS41OTNjLS41MjEgMC0uNzgyLS4yNi0uNzgyLS43OHptNS41OTQgMi4zNzRjLjIzIDAgLjQxNy4wODQuNTYzLjI1YS44MzIuODMyIDAgMCAxIDAgMS4xMjYuNzYyLjc2MiAwIDAgMS0uNTYzLjIxOEg1LjU5NGEuNzYyLjc2MiAwIDAgMS0uNTYzLS4yMTkuODMyLjgzMiAwIDAgMSAwLTEuMTI0LjcxMy43MTMgMCAwIDEgLjU2My0uMjVoNC44MTJ6IiBmaWxsPSIjMUQyRDNFIi8+PC9zdmc+" parent="1" vertex="1">
          <mxGeometry x="-185.00000000000006" y="-665" width="30" height="30" as="geometry" />
        </mxCell>
        <mxCell id="AC1n5_2y5fodJ-FfjMJq-15" value="" style="shape=image;verticalLabelPosition=bottom;verticalAlign=top;imageAspect=0;aspect=fixed;image=data:image/svg+xml,PHN2ZyB4bWxucz0iaHR0cDovL3d3dy53My5vcmcvMjAwMC9zdmciIHZpZXdCb3g9IjAgMCAxNiAxNiIgZmlsbD0ibm9uZSI+PHBhdGggZD0iTTE0LjE1Ni4yNWEuNzYxLjc2MSAwIDAgMSAuMjE5LjU2M3YxNC4zNzRhLjgzMi44MzIgMCAwIDEtLjIxOS41NjMuNzEzLjcxMyAwIDAgMS0uNTYyLjI1SDIuNDA2YS43MTMuNzEzIDAgMCAxLS41NjItLjI1LjgzMi44MzIgMCAwIDEtLjIxOS0uNTYzVjUuNTk1YzAtLjIwOS4wNzMtLjM4Ni4yMTktLjUzMkw2LjYyNS4yNWEuODMyLjgzMiAwIDAgMSAuNTYzLS4yMTloNi40MDZjLjIyOSAwIC40MTYuMDczLjU2Mi4yMTl6bS0xLjM3NSAxLjM3NWgtNS4yNWwtLjM0My4zMTNWNGMwIC40MzgtLjE1Ny44MTMtLjQ3IDEuMTI1YTEuNTM0IDEuNTM0IDAgMCAxLTEuMTI0LjQ2OUgzLjUzbC0uMzEyLjM0M3Y4LjQ3aDkuNTYyVjEuNjI0ek00LjgxMiA4LjgxM2MwLS41NDIuMjYtLjgxMy43ODItLjgxM2g0LjgxMmMuNTIxIDAgLjc4MS4yNy43ODEuODEzIDAgLjUyLS4yNi43OC0uNzguNzhINS41OTNjLS41MjEgMC0uNzgyLS4yNi0uNzgyLS43OHptNS41OTQgMi4zNzRjLjIzIDAgLjQxNy4wODQuNTYzLjI1YS44MzIuODMyIDAgMCAxIDAgMS4xMjYuNzYyLjc2MiAwIDAgMS0uNTYzLjIxOEg1LjU5NGEuNzYyLjc2MiAwIDAgMS0uNTYzLS4yMTkuODMyLjgzMiAwIDAgMSAwLTEuMTI0LjcxMy43MTMgMCAwIDEgLjU2My0uMjVoNC44MTJ6IiBmaWxsPSIjMUQyRDNFIi8+PC9zdmc+" parent="1" vertex="1">
          <mxGeometry x="225.99999999999994" y="-665" width="30" height="30" as="geometry" />
        </mxCell>
        <mxCell id="AC1n5_2y5fodJ-FfjMJq-16" value="" style="endArrow=block;html=1;strokeColor=#CC00DC;bendable=1;rounded=1;endFill=1;endSize=3;strokeWidth=2;exitX=1;exitY=0.5;exitDx=0;exitDy=0;" parent="1" edge="1">
          <mxGeometry width="50" height="50" relative="1" as="geometry">
            <mxPoint x="-155" y="-650.5" as="sourcePoint" />
            <mxPoint x="-100" y="-650" as="targetPoint" />
            <Array as="points" />
          </mxGeometry>
        </mxCell>
        <mxCell id="AC1n5_2y5fodJ-FfjMJq-20" value="" style="endArrow=block;html=1;strokeColor=#354A5F;bendable=1;rounded=1;endFill=1;endSize=3;strokeWidth=2;exitX=1;exitY=0.5;exitDx=0;exitDy=0;entryX=0.071;entryY=0.869;entryDx=0;entryDy=0;edgeStyle=orthogonalEdgeStyle;entryPerimeter=0;" parent="1" source="wHrxclecU_oj1YYdlzbx-80" target="AC1n5_2y5fodJ-FfjMJq-5" edge="1">
          <mxGeometry width="50" height="50" relative="1" as="geometry">
            <mxPoint x="-298" y="-629" as="sourcePoint" />
            <mxPoint x="-155" y="-629" as="targetPoint" />
            <Array as="points">
              <mxPoint x="-280" y="-628" />
              <mxPoint x="-280" y="-422" />
            </Array>
          </mxGeometry>
        </mxCell>
        <mxCell id="AC1n5_2y5fodJ-FfjMJq-26" value="" style="endArrow=block;html=1;strokeColor=#CC00DC;bendable=1;rounded=1;endFill=1;endSize=3;strokeWidth=2;exitX=0.885;exitY=0.02;exitDx=0;exitDy=0;exitPerimeter=0;entryX=0.852;entryY=1.005;entryDx=0;entryDy=0;entryPerimeter=0;" parent="1" edge="1">
          <mxGeometry width="50" height="50" relative="1" as="geometry">
            <mxPoint x="104.48000000000002" y="-455.53999999999996" as="sourcePoint" />
            <mxPoint x="105.03999999999996" y="-546.0250000000001" as="targetPoint" />
            <Array as="points" />
          </mxGeometry>
        </mxCell>
        <mxCell id="AC1n5_2y5fodJ-FfjMJq-28" value="" style="endArrow=block;html=1;strokeColor=#354A5F;bendable=1;rounded=1;endFill=1;endSize=3;strokeWidth=2;entryX=0;entryY=0.5;entryDx=0;entryDy=0;exitX=1;exitY=0.25;exitDx=0;exitDy=0;edgeStyle=orthogonalEdgeStyle;" parent="1" source="AC1n5_2y5fodJ-FfjMJq-3" target="AC1n5_2y5fodJ-FfjMJq-2" edge="1">
          <mxGeometry width="50" height="50" relative="1" as="geometry">
            <mxPoint x="256" y="-572.75" as="sourcePoint" />
            <mxPoint x="382" y="-572.25" as="targetPoint" />
          </mxGeometry>
        </mxCell>
        <mxCell id="AC1n5_2y5fodJ-FfjMJq-29" value="&lt;font color=&quot;#5b738b&quot; style=&quot;font-size: 10px;&quot;&gt;&lt;span style=&quot;font-size: 10px;&quot;&gt;&lt;b style=&quot;font-size: 10px;&quot;&gt;Master data&lt;br style=&quot;font-size: 10px;&quot;&gt;change request&lt;/b&gt;&lt;/span&gt;&lt;/font&gt;" style="text;html=1;align=center;verticalAlign=middle;resizable=0;points=[];autosize=1;strokeColor=none;fillColor=none;fontSize=10;" parent="1" vertex="1">
          <mxGeometry x="-220.00000000000006" y="-718" width="100" height="40" as="geometry" />
        </mxCell>
        <mxCell id="AC1n5_2y5fodJ-FfjMJq-30" value="&lt;font color=&quot;#5b738b&quot; style=&quot;font-size: 10px;&quot;&gt;&lt;span style=&quot;font-size: 10px;&quot;&gt;&lt;b style=&quot;font-size: 10px;&quot;&gt;Master data&lt;br style=&quot;font-size: 10px;&quot;&gt;change event&lt;/b&gt;&lt;/span&gt;&lt;/font&gt;" style="text;html=1;align=center;verticalAlign=middle;resizable=0;points=[];autosize=1;strokeColor=none;fillColor=none;fontSize=10;" parent="1" vertex="1">
          <mxGeometry x="195.99999999999994" y="-718" width="90" height="40" as="geometry" />
        </mxCell>
        <mxCell id="AC1n5_2y5fodJ-FfjMJq-34" value="" style="endArrow=block;html=1;strokeColor=#CC00DC;bendable=1;rounded=1;endFill=1;endSize=3;entryX=1;entryY=0.47;entryDx=0;entryDy=0;entryPerimeter=0;strokeWidth=2;" parent="1" target="wHrxclecU_oj1YYdlzbx-47" edge="1">
          <mxGeometry width="50" height="50" relative="1" as="geometry">
            <mxPoint x="230" y="-650" as="sourcePoint" />
            <mxPoint x="170" y="-642.33" as="targetPoint" />
            <Array as="points" />
          </mxGeometry>
        </mxCell>
        <mxCell id="AC1n5_2y5fodJ-FfjMJq-36" value="" style="endArrow=block;html=1;strokeColor=#CC00DC;bendable=1;rounded=1;endFill=1;endSize=3;exitX=0;exitY=0.5;exitDx=0;exitDy=0;strokeWidth=2;" parent="1" source="wHrxclecU_oj1YYdlzbx-83" edge="1">
          <mxGeometry width="50" height="50" relative="1" as="geometry">
            <mxPoint x="316" y="-655" as="sourcePoint" />
            <mxPoint x="252" y="-650" as="targetPoint" />
            <Array as="points" />
          </mxGeometry>
        </mxCell>
        <mxCell id="AC1n5_2y5fodJ-FfjMJq-38" value="" style="endArrow=block;html=1;strokeColor=#CC00DC;bendable=1;rounded=1;endFill=1;endSize=3;strokeWidth=2;" parent="1" edge="1">
          <mxGeometry width="50" height="50" relative="1" as="geometry">
            <mxPoint x="159" y="-405" as="sourcePoint" />
            <mxPoint x="452" y="-406" as="targetPoint" />
            <Array as="points" />
          </mxGeometry>
        </mxCell>
        <mxCell id="AC1n5_2y5fodJ-FfjMJq-40" value="&lt;b&gt;&lt;font face=&quot;arial black&quot; style=&quot;font-size: 13px;&quot; color=&quot;#ffffff&quot;&gt;2&lt;/font&gt;&lt;/b&gt;" style="ellipse;whiteSpace=wrap;html=1;aspect=fixed;rotation=0;gradientColor=#CC00DC;strokeColor=none;gradientDirection=east;fillColor=#F56BFF;" parent="1" vertex="1">
          <mxGeometry x="-87" y="-635" width="24" height="24" as="geometry" />
        </mxCell>
        <mxCell id="AC1n5_2y5fodJ-FfjMJq-41" value="" style="endArrow=block;html=1;strokeColor=#354A5F;bendable=1;rounded=1;endFill=1;endSize=3;strokeWidth=2;exitX=0.5;exitY=0;exitDx=0;exitDy=0;entryX=0.5;entryY=1;entryDx=0;entryDy=0;startArrow=none;startFill=0;dashed=1;" parent="1" source="wHrxclecU_oj1YYdlzbx-52" target="AC1n5_2y5fodJ-FfjMJq-3" edge="1">
          <mxGeometry width="50" height="50" relative="1" as="geometry">
            <mxPoint x="168" y="-388.5" as="sourcePoint" />
            <mxPoint x="392" y="-388.5" as="targetPoint" />
            <Array as="points" />
          </mxGeometry>
        </mxCell>
        <mxCell id="AC1n5_2y5fodJ-FfjMJq-43" value="&lt;b&gt;&lt;font face=&quot;arial black&quot; style=&quot;font-size: 13px;&quot; color=&quot;#ffffff&quot;&gt;3&lt;/font&gt;&lt;/b&gt;" style="ellipse;whiteSpace=wrap;html=1;aspect=fixed;rotation=0;gradientColor=#CC00DC;strokeColor=none;gradientDirection=east;fillColor=#F56BFF;" parent="1" vertex="1">
          <mxGeometry x="347" y="-682" width="24" height="24" as="geometry" />
        </mxCell>
        <mxCell id="AC1n5_2y5fodJ-FfjMJq-45" value="&lt;b&gt;&lt;font face=&quot;arial black&quot; style=&quot;font-size: 13px;&quot; color=&quot;#ffffff&quot;&gt;4&lt;/font&gt;&lt;/b&gt;" style="ellipse;whiteSpace=wrap;html=1;aspect=fixed;rotation=0;gradientColor=#0057D2;strokeColor=none;gradientDirection=east;fillColor=#2395FF;" parent="1" vertex="1">
          <mxGeometry x="347" y="-387" width="24" height="24" as="geometry" />
        </mxCell>
        <mxCell id="AC1n5_2y5fodJ-FfjMJq-48" value="&lt;font color=&quot;#5b738b&quot; style=&quot;font-size: 10px;&quot;&gt;&lt;span style=&quot;font-size: 10px;&quot;&gt;&lt;b style=&quot;font-size: 10px;&quot;&gt;Master data provider&lt;/b&gt;&lt;/span&gt;&lt;/font&gt;" style="text;html=1;align=center;verticalAlign=middle;resizable=0;points=[];autosize=1;strokeColor=none;fillColor=none;fontSize=10;" parent="1" vertex="1">
          <mxGeometry x="-499.5" y="-712.5" width="120" height="30" as="geometry" />
        </mxCell>
        <mxCell id="AC1n5_2y5fodJ-FfjMJq-49" value="&lt;font color=&quot;#5b738b&quot; style=&quot;font-size: 10px;&quot;&gt;&lt;span style=&quot;font-size: 10px;&quot;&gt;&lt;b style=&quot;font-size: 10px;&quot;&gt;Master data consumer&lt;/b&gt;&lt;/span&gt;&lt;/font&gt;" style="text;html=1;align=center;verticalAlign=middle;resizable=0;points=[];autosize=1;strokeColor=none;fillColor=none;fontSize=10;" parent="1" vertex="1">
          <mxGeometry x="471.5" y="-712.5" width="130" height="30" as="geometry" />
        </mxCell>
        <mxCell id="AC1n5_2y5fodJ-FfjMJq-4" value="" style="shape=image;verticalLabelPosition=bottom;verticalAlign=top;imageAspect=0;aspect=fixed;image=data:image/svg+xml,PHN2ZyB4bWxucz0iaHR0cDovL3d3dy53My5vcmcvMjAwMC9zdmciIGZpbGw9Im5vbmUiIHZpZXdCb3g9IjAgMCA0OSA0OSIgaGVpZ2h0PSI0OSIgd2lkdGg9IjQ5Ij4mI3hhOzxjaXJjbGUgc3Ryb2tlLXdpZHRoPSIwLjg1NzE0MyIgc3Ryb2tlPSIjRDVEQUREIiBmaWxsPSJ1cmwoI3BhaW50MF9saW5lYXJfMjYyM18yMDYxNSkiIHI9IjIzLjU3MTQiIGN5PSIyNC4wMzQ5IiBjeD0iMjQuNSIvPiYjeGE7PGcgY2xpcC1wYXRoPSJ1cmwoI2NsaXAwXzI2MjNfMjA2MTUpIj4mI3hhOzxwYXRoIGZpbGw9InVybCgjcGFpbnQxX3JhZGlhbF8yNjIzXzIwNjE1KSIgZD0iTTI0LjMyODYgMTAuNDc0M0MyMC4xMzczIDEwLjQ3NDMgMTcuMTIxOCAxMy41MjMyIDE2LjE4OSAxNi45NTM0QzE1LjA5NTUgMTcuMjAwMiAxNC4xMDA3IDE3LjcxNDkgMTMuMjczOSAxOC40NzZDMTEuODA2IDE5LjgyNzEgMTEuMDkzIDIxLjc0NDMgMTEuMDkzIDIzLjY4MzdDMTEuMDkzIDI1LjQ1MTcgMTEuNjMyNyAyNy4yNDQ1IDEyLjk2MDEgMjguNjA2N0MxNC4zMDIxIDI5Ljk4MzggMTYuMTQ4IDMwLjYxMjIgMTguMTQ4MyAzMC42MTIySDE4Ljk4NzFDMTguMzk3NiAyOS45NzkzIDE4LjAzNyAyOS4xMzA1IDE4LjAzNyAyOC4xOTc0VjI3LjA5NTRDMTguMDM3IDI1LjEzODIgMTkuNjIzNiAyMy41NTE3IDIxLjU4MDcgMjMuNTUxN0gyMi40NTQ2TDIyLjQ1NDMgMjMuNTA2OVYyMi40MDQ5QzIyLjQ1NDMgMjAuNDQ3OCAyNC4wNDA5IDE4Ljg2MTIgMjUuOTk4MSAxOC44NjEySDI3LjY2N0MyOS42MjQyIDE4Ljg2MTIgMzEuMjEwOCAyMC40NDc4IDMxLjIxMDggMjIuNDA0OVYyMy41MDY5QzMxLjIxMDggMjMuNzU3OSAzMS4xODQ3IDI0LjAwMjcgMzEuMTM1MSAyNC4yMzg5QzMxLjY1MTcgMjIuOTIxMiAzMi45MzQ3IDIxLjk4ODIgMzQuNDM1NiAyMS45ODgySDM2LjEwNDVDMzYuNzI5MiAyMS45ODgyIDM3LjMxNjEgMjIuMTQ5OCAzNy44MjU4IDIyLjQzMzVDMzcuNzI3OCAxOC42MTEzIDM1LjEyNzEgMTUuNTEzNiAzMS43NTUxIDE0LjgxMzJDMzAuMjU4NiAxMi4yNDE2IDI3LjY5NTMgMTAuNDc0MyAyNC4zMjg2IDEwLjQ3NDNaIi8+JiN4YTs8cGF0aCBmaWxsPSJ1cmwoI3BhaW50Ml9yYWRpYWxfMjYyM18yMDYxNSkiIGQ9Ik0yNC4yMTU4IDIyLjMxODZDMjQuMjE1OCAyMS4yOTM0IDI1LjA0NjkgMjAuNDYyNCAyNi4wNzIxIDIwLjQ2MjRIMjcuNzQxMUMyOC43NjYyIDIwLjQ2MjQgMjkuNTk3MyAyMS4yOTM0IDI5LjU5NzMgMjIuMzE4NlYyMy40MjA2QzI5LjU5NzMgMjQuMTM3MiAyOS4xOTEyIDI0Ljc1OSAyOC41OTY1IDI1LjA2ODRMMjkuMjE4NiAyNi43NDY2SDI5LjcxNjRDMzAuMTg2IDI2Ljc0NjYgMzAuNjE0OCAyNi45MjEgMzAuOTQxNyAyNy4yMDg1TDMyLjYxODYgMjYuNDE3N1YyNS40MjE1QzMyLjYxODYgMjQuMzk2MyAzMy40NDk2IDIzLjU2NTIgMzQuNDc0OCAyMy41NjUySDM2LjE0MzhDMzcuMTY5IDIzLjU2NTIgMzggMjQuMzk2MyAzOCAyNS40MjE1VjI2LjUyMzVDMzggMjcuNTQ4NyAzNy4xNjkgMjguMzc5NyAzNi4xNDM4IDI4LjM3OTdIMzQuNDc0OEMzNC4wMjY0IDI4LjM3OTcgMzMuNjE1MiAyOC4yMjA4IDMzLjI5NDQgMjcuOTU2MUwzMS41NzI2IDI4Ljc2MjhWMjkuNzA0OEMzMS41NzI2IDI5Ljg4NzMgMzEuNTQ2MyAzMC4wNjM3IDMxLjQ5NzIgMzAuMjMwM0wzMi4zODY3IDMxLjExOThDMzIuNDcyNSAzMS4xMDc2IDMyLjU2MDMgMzEuMTAxMyAzMi42NDk1IDMxLjEwMTNIMzQuMzE4NUMzNS4zNDM3IDMxLjEwMTMgMzYuMTc0NyAzMS45MzI0IDM2LjE3NDcgMzIuOTU3NlYzNC4wNTk2QzM2LjE3NDcgMzUuMDg0NyAzNS4zNDM3IDM1LjkxNTggMzQuMzE4NSAzNS45MTU4SDMyLjY0OTVDMzEuNjI0MyAzNS45MTU4IDMwLjc5MzMgMzUuMDg0NyAzMC43OTMzIDM0LjA1OTZWMzIuOTU3NkMzMC43OTMzIDMyLjY1NDIgMzAuODY2IDMyLjM2NzkgMzAuOTk1IDMyLjExNUwzMC4zMjcxIDMxLjQ1ODNDMzAuMTM1OSAzMS41MjQ5IDI5LjkzMDQgMzEuNTYxMSAyOS43MTY0IDMxLjU2MTFIMjguMDQ3NEMyNy45NTM2IDMxLjU2MTEgMjcuODYxNCAzMS41NTQxIDI3Ljc3MTQgMzEuNTQwN0wyNi4yNTI0IDMzLjU2NjFDMjYuNDQxNSAzMy44NTY5IDI2LjU1MTMgMzQuMjA0IDI2LjU1MTMgMzQuNTc2N1YzNS42Nzg3QzI2LjU1MTMgMzYuNzAzOCAyNS43MjAzIDM3LjUzNDkgMjQuNjk1MSAzNy41MzQ5SDIzLjAyNjFDMjIuMDAwOSAzNy41MzQ5IDIxLjE2OTggMzYuNzAzOCAyMS4xNjk4IDM1LjY3ODdWMzQuNTc2N0MyMS4xNjk4IDMzLjU1MTUgMjIuMDAwOSAzMi43MjA0IDIzLjAyNjEgMzIuNzIwNEgyNC42OTUxQzI0LjcyNzggMzIuNzIwNCAyNC43NjAzIDMyLjcyMTMgMjQuNzkyNiAzMi43MjI5TDI2LjQwNTggMzAuNTcyMUMyNi4yNjg3IDMwLjMxMzIgMjYuMTkxMiAzMC4wMTgxIDI2LjE5MTIgMjkuNzA0OFYyOS4yNjUxTDI0Ljk3NzggMjguODcwMUMyNC42ODUxIDI5LjUxMDYgMjQuMDM4OCAyOS45NTU2IDIzLjI4ODcgMjkuOTU1NkgyMS42MTk3QzIwLjU5NDUgMjkuOTU1NiAxOS43NjM0IDI5LjEyNDUgMTkuNzYzNCAyOC4wOTkzVjI2Ljk5NzNDMTkuNzYzNCAyNS45NzIyIDIwLjU5NDUgMjUuMTQxMSAyMS42MTk3IDI1LjE0MTFIMjMuMjg4N0MyNC4zMTM4IDI1LjE0MTEgMjUuMTQ0OSAyNS45NzIyIDI1LjE0NDkgMjYuOTk3M1YyNy4xMzMxTDI2LjQ5OTEgMjcuNTc4NUMyNi43MjQ1IDI3LjIzODUgMjcuMDU5IDI2Ljk3NyAyNy40NTI2IDI2Ljg0NEwyNi44NjcyIDI1LjI3NjhIMjYuMDcyMUMyNS4wNDY5IDI1LjI3NjggMjQuMjE1OCAyNC40NDU4IDI0LjIxNTggMjMuNDIwNlYyMi4zMTg2Wk0yNi4wNzIxIDIyLjE0OTlDMjUuOTc4OSAyMi4xNDk5IDI1LjkwMzMgMjIuMjI1NCAyNS45MDMzIDIyLjMxODZWMjMuNDIwNkMyNS45MDMzIDIzLjUxMzggMjUuOTc4OSAyMy41ODkzIDI2LjA3MjEgMjMuNTg5M0gyNy43NDExQzI3LjgzNDMgMjMuNTg5MyAyNy45MDk4IDIzLjUxMzggMjcuOTA5OCAyMy40MjA2VjIyLjMxODZDMjcuOTA5OCAyMi4yMjU0IDI3LjgzNDMgMjIuMTQ5OSAyNy43NDExIDIyLjE0OTlIMjYuMDcyMVpNMjguMDQ3NCAyOC40MzQxQzI3Ljk1NDIgMjguNDM0MSAyNy44Nzg3IDI4LjUwOTcgMjcuODc4NyAyOC42MDI5VjI5LjcwNDhDMjcuODc4NyAyOS43OTggMjcuOTU0MiAyOS44NzM2IDI4LjA0NzQgMjkuODczNkgyOS43MTY0QzI5LjgwOTYgMjkuODczNiAyOS44ODUxIDI5Ljc5OCAyOS44ODUxIDI5LjcwNDhWMjguNjAyOUMyOS44ODUxIDI4LjUwOTcgMjkuODA5NiAyOC40MzQxIDI5LjcxNjQgMjguNDM0MUgyOC4wNDc0Wk0zNC4zMDYxIDI1LjQyMTVDMzQuMzA2MSAyNS4zMjgzIDM0LjM4MTYgMjUuMjUyNyAzNC40NzQ4IDI1LjI1MjdIMzYuMTQzOEMzNi4yMzcgMjUuMjUyNyAzNi4zMTI1IDI1LjMyODMgMzYuMzEyNSAyNS40MjE1VjI2LjUyMzVDMzYuMzEyNSAyNi42MTY3IDM2LjIzNyAyNi42OTIyIDM2LjE0MzggMjYuNjkyMkgzNC40NzQ4QzM0LjM4MTYgMjYuNjkyMiAzNC4zMDYxIDI2LjYxNjcgMzQuMzA2MSAyNi41MjM1VjI1LjQyMTVaTTMyLjY0OTUgMzIuNzg4OEMzMi41NTYzIDMyLjc4ODggMzIuNDgwOCAzMi44NjQ0IDMyLjQ4MDggMzIuOTU3NlYzNC4wNTk2QzMyLjQ4MDggMzQuMTUyOCAzMi41NTYzIDM0LjIyODMgMzIuNjQ5NSAzNC4yMjgzSDM0LjMxODVDMzQuNDExNyAzNC4yMjgzIDM0LjQ4NzIgMzQuMTUyOCAzNC40ODcyIDM0LjA1OTZWMzIuOTU3NkMzNC40ODcyIDMyLjg2NDQgMzQuNDExNyAzMi43ODg4IDM0LjMxODUgMzIuNzg4OEgzMi42NDk1Wk0yMi44NTczIDM0LjU3NjdDMjIuODU3MyAzNC40ODM1IDIyLjkzMjkgMzQuNDA3OSAyMy4wMjYxIDM0LjQwNzlIMjQuNjk1MUMyNC43ODgzIDM0LjQwNzkgMjQuODYzOCAzNC40ODM1IDI0Ljg2MzggMzQuNTc2N1YzNS42Nzg3QzI0Ljg2MzggMzUuNzcxOSAyNC43ODgzIDM1Ljg0NzQgMjQuNjk1MSAzNS44NDc0SDIzLjAyNjFDMjIuOTMyOSAzNS44NDc0IDIyLjg1NzMgMzUuNzcxOSAyMi44NTczIDM1LjY3ODdWMzQuNTc2N1pNMjEuNjE5NyAyNi44Mjg2QzIxLjUyNjUgMjYuODI4NiAyMS40NTA5IDI2LjkwNDEgMjEuNDUwOSAyNi45OTczVjI4LjA5OTNDMjEuNDUwOSAyOC4xOTI1IDIxLjUyNjUgMjguMjY4MSAyMS42MTk3IDI4LjI2ODFIMjMuMjg4N0MyMy4zODE5IDI4LjI2ODEgMjMuNDU3NCAyOC4xOTI1IDIzLjQ1NzQgMjguMDk5M1YyNi45OTczQzIzLjQ1NzQgMjYuOTA0MSAyMy4zODE5IDI2LjgyODYgMjMuMjg4NyAyNi44Mjg2SDIxLjYxOTdaIiBjbGlwLXJ1bGU9ImV2ZW5vZGQiIGZpbGwtcnVsZT0iZXZlbm9kZCIvPiYjeGE7PC9nPiYjeGE7PGRlZnM+JiN4YTs8bGluZWFyR3JhZGllbnQgZ3JhZGllbnRVbml0cz0idXNlclNwYWNlT25Vc2UiIHkyPSI0NC4yNzkyIiB4Mj0iNDEuNTY0NSIgeTE9IjYuODQ3NzUiIHgxPSI0Ljg1Mjg3IiBpZD0icGFpbnQwX2xpbmVhcl8yNjIzXzIwNjE1Ij4mI3hhOzxzdG9wIHN0b3AtY29sb3I9IndoaXRlIi8+JiN4YTs8c3RvcCBzdG9wLWNvbG9yPSIjRUFFQ0VFIiBvZmZzZXQ9IjEiLz4mI3hhOzwvbGluZWFyR3JhZGllbnQ+JiN4YTs8cmFkaWFsR3JhZGllbnQgZ3JhZGllbnRUcmFuc2Zvcm09InRyYW5zbGF0ZSgxNS4yMzg2IDEzLjQzMTIpIHJvdGF0ZSgzNy4yOTY5KSBzY2FsZSgyMy4yNjYxIDQyLjM4MjUpIiBncmFkaWVudFVuaXRzPSJ1c2VyU3BhY2VPblVzZSIgcj0iMSIgY3k9IjAiIGN4PSIwIiBpZD0icGFpbnQxX3JhZGlhbF8yNjIzXzIwNjE1Ij4mI3hhOzxzdG9wIHN0b3AtY29sb3I9IiMwMTk1RkYiLz4mI3hhOzxzdG9wIHN0b3AtY29sb3I9IiMxMTQ3RTkiIG9mZnNldD0iMSIvPiYjeGE7PC9yYWRpYWxHcmFkaWVudD4mI3hhOzxyYWRpYWxHcmFkaWVudCBncmFkaWVudFRyYW5zZm9ybT0idHJhbnNsYXRlKDIyLjU4NzMgMjMuMDMwNykgcm90YXRlKDQzLjExMTgpIHNjYWxlKDE3LjQwMSAxNS44MjI1KSIgZ3JhZGllbnRVbml0cz0idXNlclNwYWNlT25Vc2UiIHI9IjEiIGN5PSIwIiBjeD0iMCIgaWQ9InBhaW50Ml9yYWRpYWxfMjYyM18yMDYxNSI+JiN4YTs8c3RvcCBzdG9wLWNvbG9yPSIjMTM0OEZGIi8+JiN4YTs8c3RvcCBzdG9wLWNvbG9yPSIjMDYyMzhEIiBvZmZzZXQ9IjEiLz4mI3hhOzwvcmFkaWFsR3JhZGllbnQ+JiN4YTs8Y2xpcFBhdGggaWQ9ImNsaXAwXzI2MjNfMjA2MTUiPiYjeGE7PHJlY3QgdHJhbnNmb3JtPSJ0cmFuc2xhdGUoMTEgMTAuNTM0OSkiIGZpbGw9IndoaXRlIiBoZWlnaHQ9IjI3IiB3aWR0aD0iMjciLz4mI3hhOzwvY2xpcFBhdGg+JiN4YTs8L2RlZnM+JiN4YTs8L3N2Zz4=" parent="1" vertex="1">
          <mxGeometry x="-89" y="-520" width="49" height="49" as="geometry" />
        </mxCell>
        <mxCell id="k3QtikyJZK7nQUIoRB2Y-2" value="&lt;b&gt;&lt;font face=&quot;arial black&quot; style=&quot;font-size: 13px;&quot; color=&quot;#ffffff&quot;&gt;1&lt;/font&gt;&lt;/b&gt;" style="ellipse;whiteSpace=wrap;html=1;aspect=fixed;rotation=0;gradientColor=#CC00DC;strokeColor=none;gradientDirection=east;fillColor=#f56bff;" parent="1" vertex="1">
          <mxGeometry x="-322" y="-685" width="24" height="24" as="geometry" />
        </mxCell>
        <mxCell id="k3QtikyJZK7nQUIoRB2Y-3" value="&lt;b&gt;&lt;font face=&quot;arial black&quot; style=&quot;font-size: 13px;&quot; color=&quot;#ffffff&quot;&gt;3&lt;/font&gt;&lt;/b&gt;" style="ellipse;whiteSpace=wrap;html=1;aspect=fixed;rotation=0;gradientColor=#0057D2;strokeColor=none;gradientDirection=east;fillColor=#2395FF;" parent="1" vertex="1">
          <mxGeometry x="42" y="-291" width="24" height="24" as="geometry" />
        </mxCell>
        <mxCell id="k3QtikyJZK7nQUIoRB2Y-4" value="&lt;b&gt;&lt;font face=&quot;arial black&quot; style=&quot;font-size: 13px;&quot; color=&quot;#ffffff&quot;&gt;5&lt;/font&gt;&lt;/b&gt;" style="ellipse;whiteSpace=wrap;html=1;aspect=fixed;rotation=0;gradientColor=#CC00DC;strokeColor=none;gradientDirection=east;fillColor=#F56BFF;" parent="1" vertex="1">
          <mxGeometry x="3" y="-291" width="24" height="24" as="geometry" />
        </mxCell>
        <mxCell id="AC1n5_2y5fodJ-FfjMJq-3" value="" style="rounded=1;whiteSpace=wrap;html=1;strokeColor=#0070F2;fillColor=#FFFFFF;arcSize=16;absoluteArcSize=1;imageWidth=64;imageHeight=64;" parent="1" vertex="1">
          <mxGeometry x="-89" y="-457" width="248" height="123" as="geometry" />
        </mxCell>
        <mxCell id="AC1n5_2y5fodJ-FfjMJq-5" value="&lt;div style=&quot;&quot;&gt;&lt;span style=&quot;background-color: initial;&quot;&gt;&lt;font size=&quot;1&quot; style=&quot;&quot;&gt;&lt;b style=&quot;font-size: 12px;&quot;&gt;Cloud Integration&lt;/b&gt;&lt;/font&gt;&lt;/span&gt;&lt;/div&gt;" style="text;whiteSpace=wrap;html=1;align=center;fontSize=15;fontColor=#354a5f;" parent="1" vertex="1">
          <mxGeometry x="-99" y="-456.75" width="140" height="40" as="geometry" />
        </mxCell>
        <mxCell id="AC1n5_2y5fodJ-FfjMJq-8" value="&lt;b style=&quot;border-color: var(--border-color); color: rgb(0, 0, 0); font-family: Helvetica; font-style: normal; font-variant-ligatures: normal; font-variant-caps: normal; letter-spacing: normal; orphans: 2; text-indent: 0px; text-transform: none; widows: 2; word-spacing: 0px; -webkit-text-stroke-width: 0px; background-color: rgb(251, 251, 251); text-decoration-thickness: initial; text-decoration-style: initial; text-decoration-color: initial;&quot;&gt;&lt;font color=&quot;#5b738b&quot; style=&quot;border-color: var(--border-color); font-size: 10px;&quot;&gt;configured integration content&lt;/font&gt;&lt;/b&gt;" style="text;whiteSpace=wrap;html=1;align=center;" parent="1" vertex="1">
          <mxGeometry x="-53.0394" y="-372" width="180" height="28" as="geometry" />
        </mxCell>
        <mxCell id="AC1n5_2y5fodJ-FfjMJq-39" value="&lt;b&gt;&lt;font face=&quot;arial black&quot; style=&quot;font-size: 13px;&quot; color=&quot;#ffffff&quot;&gt;2&lt;/font&gt;&lt;/b&gt;" style="ellipse;whiteSpace=wrap;html=1;aspect=fixed;rotation=0;gradientColor=#0057D2;strokeColor=none;gradientDirection=east;fillColor=#2395FF;" parent="1" vertex="1">
          <mxGeometry x="-55" y="-430" width="24" height="24" as="geometry" />
        </mxCell>
        <mxCell id="k3QtikyJZK7nQUIoRB2Y-13" value="" style="group" parent="1" vertex="1" connectable="0">
          <mxGeometry x="381" y="-684" width="244" height="86" as="geometry" />
        </mxCell>
        <mxCell id="k3QtikyJZK7nQUIoRB2Y-6" value="" style="rounded=1;whiteSpace=wrap;html=1;strokeColor=#002A86;strokeWidth=1;arcSize=5;fillColor=#FFFFFF;perimeterSpacing=0;align=center;horizontal=1;verticalAlign=top;shadow=0;" parent="k3QtikyJZK7nQUIoRB2Y-13" vertex="1">
          <mxGeometry x="79" y="6" width="165" height="80" as="geometry" />
        </mxCell>
        <mxCell id="wHrxclecU_oj1YYdlzbx-39" value="&lt;b&gt;&lt;font style=&quot;font-size: 10px;&quot; color=&quot;#5b738b&quot;&gt;Cloud&lt;/font&gt;&lt;/b&gt;" style="rounded=1;whiteSpace=wrap;html=1;strokeColor=#002A86;strokeWidth=1;arcSize=5;fillColor=#FFFFFF;perimeterSpacing=0;align=center;horizontal=1;verticalAlign=top;shadow=0;" parent="k3QtikyJZK7nQUIoRB2Y-13" vertex="1">
          <mxGeometry x="73" width="165" height="80" as="geometry" />
        </mxCell>
        <mxCell id="wHrxclecU_oj1YYdlzbx-40" value="&lt;span style=&quot;font-family: Helvetica; font-style: normal; font-variant-ligatures: normal; font-variant-caps: normal; letter-spacing: normal; orphans: 2; text-indent: 0px; text-transform: none; widows: 2; word-spacing: 0px; -webkit-text-stroke-width: 0px; text-decoration-thickness: initial; text-decoration-style: initial; text-decoration-color: initial; float: none; display: inline !important;&quot;&gt;&lt;font style=&quot;&quot; color=&quot;#354a5f&quot;&gt;&lt;font style=&quot;&quot;&gt;&lt;b&gt;SAP Solution&lt;/b&gt;&lt;span style=&quot;font-size: 15px;&quot;&gt;&lt;b&gt;&lt;br&gt;&lt;/b&gt;&lt;/span&gt;&lt;/font&gt;&lt;font style=&quot;font-size: 10px;&quot;&gt;(incl. SAP Master&lt;br&gt;Data Governance)&lt;/font&gt;&lt;/font&gt;&lt;/span&gt;" style="text;whiteSpace=wrap;html=1;align=center;" parent="k3QtikyJZK7nQUIoRB2Y-13" vertex="1">
          <mxGeometry x="118" y="22" width="120" height="44" as="geometry" />
        </mxCell>
        <mxCell id="wHrxclecU_oj1YYdlzbx-83" value="&lt;font color=&quot;#ffffff&quot; style=&quot;font-size: 10px;&quot;&gt;REST / SOAP&lt;/font&gt;" style="rounded=1;whiteSpace=wrap;html=1;arcSize=30;absoluteArcSize=1;strokeColor=#354a5f;fillColor=#354a5f;imageVerticalAlign=top;imageAlign=center;imageWidth=24;imageHeight=16;fontSize=10;" parent="k3QtikyJZK7nQUIoRB2Y-13" vertex="1">
          <mxGeometry x="38.134000000000015" y="29" width="70.866" height="11.811" as="geometry" />
        </mxCell>
        <mxCell id="AC1n5_2y5fodJ-FfjMJq-2" value="&lt;font color=&quot;#ffffff&quot; style=&quot;font-size: 10px;&quot;&gt;REST / OData / SOAP&lt;/font&gt;" style="rounded=1;whiteSpace=wrap;html=1;arcSize=30;absoluteArcSize=1;strokeColor=#354a5f;fillColor=#354a5f;imageVerticalAlign=top;imageAlign=center;imageWidth=24;imageHeight=16;fontSize=10;" parent="k3QtikyJZK7nQUIoRB2Y-13" vertex="1">
          <mxGeometry y="50" width="109" height="11.81" as="geometry" />
        </mxCell>
        <mxCell id="k3QtikyJZK7nQUIoRB2Y-34" value="" style="endArrow=block;html=1;strokeColor=#354A5F;bendable=1;rounded=1;endFill=1;endSize=3;strokeWidth=2;exitX=1;exitY=0.5;exitDx=0;exitDy=0;startArrow=none;startFill=0;" parent="1" edge="1" source="k3QtikyJZK7nQUIoRB2Y-30">
          <mxGeometry width="50" height="50" relative="1" as="geometry">
            <mxPoint x="-326" y="-397" as="sourcePoint" />
            <mxPoint x="-90" y="-397" as="targetPoint" />
            <Array as="points" />
          </mxGeometry>
        </mxCell>
        <mxCell id="AC1n5_2y5fodJ-FfjMJq-44" value="&lt;b&gt;&lt;font face=&quot;arial black&quot; style=&quot;font-size: 13px;&quot; color=&quot;#ffffff&quot;&gt;4&lt;/font&gt;&lt;/b&gt;" style="ellipse;whiteSpace=wrap;html=1;aspect=fixed;rotation=0;gradientColor=#CC00DC;strokeColor=none;gradientDirection=east;fillColor=#F56BFF;" parent="1" vertex="1">
          <mxGeometry x="100" y="-430" width="24" height="24" as="geometry" />
        </mxCell>
        <mxCell id="k3QtikyJZK7nQUIoRB2Y-33" value="" style="group" parent="1" vertex="1" connectable="0">
          <mxGeometry x="-538" y="-438" width="212.09429999999998" height="86" as="geometry" />
        </mxCell>
        <mxCell id="k3QtikyJZK7nQUIoRB2Y-29" value="&lt;b&gt;&lt;font color=&quot;#5b738b&quot;&gt;Cloud&lt;/font&gt;&lt;/b&gt;" style="rounded=1;whiteSpace=wrap;html=1;strokeColor=#475E75;strokeWidth=1;arcSize=5;fillColor=#F5F6F7;perimeterSpacing=0;align=center;horizontal=1;verticalAlign=top;shadow=0;" parent="k3QtikyJZK7nQUIoRB2Y-33" vertex="1">
          <mxGeometry x="5" y="6" width="165" height="80" as="geometry" />
        </mxCell>
        <mxCell id="k3QtikyJZK7nQUIoRB2Y-30" value="&lt;b&gt;&lt;font style=&quot;font-size: 10px;&quot; color=&quot;#5b738b&quot;&gt;Cloud&lt;/font&gt;&lt;/b&gt;" style="rounded=1;whiteSpace=wrap;html=1;strokeColor=#475E75;strokeWidth=1;arcSize=5;fillColor=#F5F6F7;perimeterSpacing=0;align=center;horizontal=1;verticalAlign=top;shadow=0;" parent="k3QtikyJZK7nQUIoRB2Y-33" vertex="1">
          <mxGeometry width="165" height="80" as="geometry" />
        </mxCell>
        <mxCell id="k3QtikyJZK7nQUIoRB2Y-31" value="&lt;span style=&quot;font-family: Helvetica; font-style: normal; font-variant-ligatures: normal; font-variant-caps: normal; font-weight: 700; letter-spacing: normal; orphans: 2; text-indent: 0px; text-transform: none; widows: 2; word-spacing: 0px; -webkit-text-stroke-width: 0px; text-decoration-thickness: initial; text-decoration-style: initial; text-decoration-color: initial; float: none; display: inline !important;&quot;&gt;&lt;font style=&quot;font-size: 12px;&quot; color=&quot;#354a5f&quot;&gt;Third-Party Solution&lt;/font&gt;&lt;/span&gt;" style="text;whiteSpace=wrap;html=1;align=center;verticalAlign=middle;" parent="k3QtikyJZK7nQUIoRB2Y-33" vertex="1">
          <mxGeometry x="20.5" y="21.625" width="124" height="36.75" as="geometry" />
        </mxCell>
        <mxCell id="4CLjx_f1UrBtVsuY_A0e-1" value="&lt;b&gt;&lt;font face=&quot;arial black&quot; style=&quot;font-size: 13px;&quot; color=&quot;#ffffff&quot;&gt;1&lt;/font&gt;&lt;/b&gt;" style="ellipse;whiteSpace=wrap;html=1;aspect=fixed;rotation=0;gradientColor=#0057D2;strokeColor=none;gradientDirection=east;fillColor=#2395FF;" vertex="1" parent="1">
          <mxGeometry x="-322" y="-430" width="24" height="24" as="geometry" />
        </mxCell>
        <mxCell id="3aGdAtsPFMShDXEWBv5q-1" value="&lt;b&gt;&lt;font color=&quot;#5b738b&quot;&gt;Cloud&lt;/font&gt;&lt;/b&gt;" style="rounded=1;whiteSpace=wrap;html=1;strokeColor=#475E75;strokeWidth=1;arcSize=5;fillColor=#F5F6F7;perimeterSpacing=0;align=center;horizontal=1;verticalAlign=top;shadow=0;" parent="1" vertex="1">
          <mxGeometry x="460" y="-429.5" width="165" height="80" as="geometry" />
        </mxCell>
        <mxCell id="wHrxclecU_oj1YYdlzbx-41" value="&lt;b&gt;&lt;font style=&quot;font-size: 10px;&quot; color=&quot;#5b738b&quot;&gt;Cloud&lt;/font&gt;&lt;/b&gt;" style="rounded=1;whiteSpace=wrap;html=1;strokeColor=#475E75;strokeWidth=1;arcSize=5;fillColor=#F5F6F7;perimeterSpacing=0;align=center;horizontal=1;verticalAlign=top;shadow=0;" parent="1" vertex="1">
          <mxGeometry x="455" y="-435.5" width="165" height="80" as="geometry" />
        </mxCell>
        <mxCell id="wHrxclecU_oj1YYdlzbx-42" value="&lt;span style=&quot;font-family: Helvetica; font-style: normal; font-variant-ligatures: normal; font-variant-caps: normal; font-weight: 700; letter-spacing: normal; orphans: 2; text-indent: 0px; text-transform: none; widows: 2; word-spacing: 0px; -webkit-text-stroke-width: 0px; text-decoration-thickness: initial; text-decoration-style: initial; text-decoration-color: initial; float: none; display: inline !important;&quot;&gt;&lt;font style=&quot;font-size: 12px;&quot; color=&quot;#354a5f&quot;&gt;Third-Party Solution&lt;/font&gt;&lt;/span&gt;" style="text;whiteSpace=wrap;html=1;align=center;verticalAlign=middle;" parent="1" vertex="1">
          <mxGeometry x="463.375" y="-418.375" width="148.25" height="45.75" as="geometry" />
        </mxCell>
        <mxCell id="4CLjx_f1UrBtVsuY_A0e-3" value="&lt;b&gt;&lt;font face=&quot;arial black&quot; style=&quot;font-size: 13px;&quot; color=&quot;#ffffff&quot;&gt;4&lt;/font&gt;&lt;/b&gt;" style="ellipse;whiteSpace=wrap;html=1;aspect=fixed;rotation=0;gradientColor=#0057D2;strokeColor=none;gradientDirection=east;fillColor=#2395FF;" vertex="1" parent="1">
          <mxGeometry x="347" y="-606" width="24" height="24" as="geometry" />
        </mxCell>
        <mxCell id="4CLjx_f1UrBtVsuY_A0e-4" value="" style="endArrow=block;html=1;strokeColor=#354A5F;bendable=1;rounded=1;endFill=1;endSize=3;strokeWidth=2;exitX=1;exitY=0.5;exitDx=0;exitDy=0;startArrow=none;startFill=0;" edge="1" parent="1">
          <mxGeometry width="50" height="50" relative="1" as="geometry">
            <mxPoint x="159" y="-396" as="sourcePoint" />
            <mxPoint x="451" y="-395" as="targetPoint" />
            <Array as="points" />
          </mxGeometry>
        </mxCell>
        <mxCell id="4CLjx_f1UrBtVsuY_A0e-7" value="" style="shape=image;verticalLabelPosition=bottom;verticalAlign=top;imageAspect=0;aspect=fixed;image=data:image/svg+xml,PHN2ZyB4bWxucz0iaHR0cDovL3d3dy53My5vcmcvMjAwMC9zdmciIHZpZXdCb3g9IjAgMCAxNiAxNiIgZmlsbD0ibm9uZSI+PHBhdGggZD0iTTE0Ljg3NSA0LjA5NGMuMjMuMTQ2LjM0NC4zMzMuMzQ0LjU2MiAwIC4wNjMtLjAxLjExNS0uMDMxLjE1N3Y2LjM3NWEuNzk2Ljc5NiAwIDAgMS0uNDA3LjcxOGwtNi4zNDQgMy45NjlBLjkzLjkzIDAgMCAxIDcuOTcgMTZjLS4xODggMC0uMzIzLS4wNDItLjQwNy0uMTI1bC02LjM3NS0zLjk2OWExIDEgMCAwIDEtLjMxMi0uMzQ0Ljk4NC45ODQgMCAwIDEtLjA5NC0uMzc0VjQuODExYzAtLjMxMi4xMzYtLjU1Mi40MDYtLjcxOGwzLjE4OC0yQzQuNTQyIDIuMDMgNC42OTggMiA0Ljg0NCAyYy4xNDYgMCAuMjgxLjAzMS40MDYuMDk0bDYuMzc1IDRjLjEwNC4wNDEuMTg4LjEzNS4yNS4yODEuMDgzLjEyNS4xMjUuMjQuMTI1LjM0NFY5LjVjMCAuNTQyLS4yNi44MTMtLjc4MS44MTNhLjg3Mi44NzIgMCAwIDEtLjU5NC0uMjJjLS4xNDYtLjE0NS0uMjE5LS4zNDMtLjIxOS0uNTkzVjcuMTg3bC01LjU2Mi0zLjVMMi40NjkgNS4yMnY1LjVsNS41NjIgMy41IDUuNTYzLTMuNXYtNS41bC01Ljk2OS0zLjc1Yy0uMjUtLjE2Ny0uMzc1LS4zODYtLjM3NS0uNjU3IDAtLjEwNC4wNDItLjI2LjEyNS0uNDY4QS44ODguODg4IDAgMCAxIDguMDk0IDAgLjYzLjYzIDAgMCAxIDguNS4xMjVsNi4zNzUgMy45Njl6bS03LjkzOCA2LjEyNWMuMjUuMTQ2LjM3NS4zNjQuMzc1LjY1NmEuOTMuOTMgMCAwIDEtLjEyNS40NjljLS4xNjYuMjI5LS40MDYuMzQ0LS43MTguMzQ0YS44OTcuODk3IDAgMCAxLS40MDctLjA5NGwtMS41OTMtLjk2OWMtLjI1LS4xNjctLjM3NS0uMzc1LS4zNzUtLjYyNSAwLS4xNjcuMDUyLS4zMzMuMTU2LS41LjE4OC0uMjMuNDE3LS4zNDQuNjg4LS4zNDRhLjYzLjYzIDAgMCAxIC40MDYuMTI1bDEuNTkzLjkzOHoiIGZpbGw9IiMxRDJEM0UiLz48L3N2Zz4=" vertex="1" parent="1">
          <mxGeometry x="22" y="-414.56" width="29.9212" height="29.92" as="geometry" />
        </mxCell>
      </root>
    </mxGraphModel>
  </diagram>
</mxfile>
